<svg width="2186" height="1207" xmlns="http://www.w3.org/2000/svg" xmlns:xlink="http://www.w3.org/1999/xlink" xml:space="preserve" overflow="hidden"><defs><clipPath id="clip0"><rect x="193" y="153" width="4372" height="2414"/></clipPath><image width="3240" height="2160" href="/sprites/camp1-bg.jpeg" preserveAspectRatio="none" id="img1"></image><clipPath id="clip2"><path d="M1225441 1578090 9712444 1578090 9712444 7194722 1225441 7194722Z" fill-rule="evenodd" clip-rule="evenodd"/></clipPath><image width="1536" height="1024" href="/sprites/camp1-bg1.png" preserveAspectRatio="none" id="img3"></image><clipPath id="clip4"><rect x="0" y="0" width="7617229" height="5078152"/></clipPath><image width="1536" height="1024" href="/sprites/camp1-bg2.png" preserveAspectRatio="none" id="img5"></image><clipPath id="clip6"><rect x="0" y="0" width="7617229" height="5078152"/></clipPath><image width="1536" height="1024" href="/sprites/camp1-bg3.png" preserveAspectRatio="none" id="img7"></image><clipPath id="clip8"><rect x="4241294" y="2485744" width="2222268" height="1648902"/></clipPath><image width="1536" height="1024" href="/sprites/camp1-bg4.png" preserveAspectRatio="none" id="img9"></image><clipPath id="clip10"><rect x="4972495" y="942286" width="1953490" height="2050971"/></clipPath><image width="1536" height="1024" href="/sprites/camp1-bg5.png" preserveAspectRatio="none" id="img11"></image><clipPath id="clip12"><rect x="2984109" y="581540" width="1917469" height="2180764"/></clipPath><image width="1536" height="1024" href="/sprites/camp1-bg6.png" preserveAspectRatio="none" id="img13"></image><clipPath id="clip14"><rect x="1040252" y="984752" width="1712421" height="1987209"/></clipPath></defs><g clip-path="url(#clip0)" transform="translate(-193 -153)"><g transform="matrix(0.000360892 0 0 0.000360892 193 153)"><g clip-path="url(#clip2)" transform="matrix(1.42741 0 0 1 -1749204 -1578091)"><use width="100%" height="100%" xlink:href="#img1" transform="scale(3330.89 3330.89)"></use></g></g><g transform="matrix(0.000360892 0 0 0.000360892 596 733)"><g clip-path="url(#clip4)" transform="matrix(1 0 0 1.00073 0.0197088 -0.0884899)"><use width="100%" height="100%" xlink:href="#img3" transform="scale(4959.13 4959.13)"></use></g></g><g transform="matrix(0.000360892 0 0 0.000360892 596 733)"><g clip-path="url(#clip6)" transform="matrix(1 0 0 1.00073 0.0197088 -0.0884899)"><use width="100%" height="100%" xlink:href="#img5" transform="scale(4959.13 4959.13)"></use></g></g><g transform="matrix(0.000360892 0 0 0.000360892 2127 1627)"><g clip-path="url(#clip8)" transform="matrix(1 0 0 1.19313 -4241295 -2965804)"><use width="100%" height="100%" xlink:href="#img7" transform="scale(4959.51 4959.51)"></use></g></g><g transform="matrix(0.000360892 0 0 0.000360892 2393 962)"><g clip-path="url(#clip10)" transform="matrix(1 0 0 1.19565 -4972494 -1126649)"><use width="100%" height="100%" xlink:href="#img9" transform="scale(4954.24 4954.24)"></use></g></g><g transform="matrix(0.000360892 0 0 0.000360892 1673 807)"><g clip-path="url(#clip12)" transform="matrix(1 0 0 1.19311 -2984109 -693840)"><use width="100%" height="100%" xlink:href="#img11" transform="scale(4959.49 4959.49)"></use></g></g><g transform="matrix(0.000360892 0 0 0.000360892 972 981)"><g clip-path="url(#clip14)" transform="matrix(1 0 0 1.19498 -1040252 -1176756)"><use width="100%" height="100%" xlink:href="#img13" transform="scale(4954.26 4954.26)"></use></g></g></g></svg>