<svg width="2749" height="2188" xmlns="http://www.w3.org/2000/svg" xmlns:xlink="http://www.w3.org/1999/xlink" xml:space="preserve" overflow="hidden"><defs><image width="4000" height="4000" href="/sprites/mine1-bg.jpg" preserveAspectRatio="none" id="img0"></image><clipPath id="clip1"><rect x="767615" y="1751341" width="7617228" height="5865792"/></clipPath><clipPath id="clip2"><rect x="-2770.45" y="-2770.64" width="2175164" height="3973484"/></clipPath><image width="4000" height="4000" href="/sprites/mine1-bg1.png" preserveAspectRatio="none" id="img3"></image><clipPath id="clip4"><rect x="4767356" y="1866404" width="2171014" height="3970713"/></clipPath><clipPath id="clip5"><rect x="-0.0909091" y="0" width="3000895" height="2515986"/></clipPath><image width="4000" height="4000" href="/sprites/mine1-bg2.png" preserveAspectRatio="none" id="img6"></image><clipPath id="clip7"><rect x="2940553" y="3467770" width="3000894" height="2515114"/></clipPath><image width="1851" height="821" href="/sprites/mine1-bg3.png" preserveAspectRatio="none" id="img8"></image><clipPath id="clip9"><rect x="0" y="0" width="5128952" height="2274916"/></clipPath><clipPath id="clip10"><rect x="-2770.82" y="0" width="1116676" height="1917469"/></clipPath><image width="417" height="666" href="/sprites/mine1-bg4.png" preserveAspectRatio="none" id="img11"></image><clipPath id="clip12"><rect x="0" y="0" width="1111135" height="1774618"/></clipPath></defs><g transform="translate(-894 -155)"><g transform="matrix(0.000360892 0 0 0.000360892 894 155)"><g clip-path="url(#clip1)" transform="matrix(1 0 0 1.03358 -767615 -1810146)"><use width="100%" height="100%" xlink:href="#img0" transform="scale(2399.1 2399.1)"></use></g></g><g clip-path="url(#clip2)" transform="matrix(0.000360892 0 0 0.000360892 2327 327)"><g clip-path="url(#clip4)" transform="matrix(1.00064 0 0 1 -4770384 -1866404)"><use width="100%" height="100%" xlink:href="#img3" transform="scale(2385.73 2385.73)"></use></g></g><g clip-path="url(#clip5)" transform="matrix(0.000360892 0 0 0.000360892 1695 825)"><g clip-path="url(#clip7)" transform="matrix(1 0 0 1.00035 -2940553 -3468971)"><use width="100%" height="100%" xlink:href="#img6" transform="scale(2386.89 2386.89)"></use></g></g><g transform="matrix(0.000360892 0 0 0.000360892 1402 1376)"><g clip-path="url(#clip9)" transform="matrix(1 0 0 1 -0.0841176 -0.0546875)"><use width="100%" height="100%" xlink:href="#img8" transform="scale(2770.91 2770.91)"></use></g></g><g clip-path="url(#clip10)" transform="matrix(0.000360892 0 0 0.000360892 3145 825)"><g clip-path="url(#clip12)" transform="matrix(1 0 0 1.0805 -0.397705 -0.128174)"><use width="100%" height="100%" xlink:href="#img11" transform="scale(2664.59 2664.59)"></use></g></g></g></svg>