<svg width="7219" height="5162" xmlns="http://www.w3.org/2000/svg" xmlns:xlink="http://www.w3.org/1999/xlink" xml:space="preserve" overflow="hidden"><defs><clipPath id="clip0"><rect x="-1059" y="-1169" width="7219" height="5162"/></clipPath><image width="3600" height="2505" href="/sprites/settlement8-bg.jpg" preserveAspectRatio="none" id="img1"></image><clipPath id="clip2"><rect x="0" y="0" width="20003192" height="13918888"/></clipPath><image width="530" height="388" href="/sprites/settlement8-bg1.png" preserveAspectRatio="none" id="img3"></image><clipPath id="clip4"><rect x="0" y="0" width="5048596" height="3695953"/></clipPath><image width="438" height="378" href="/sprites/settlement8-bg2.png" preserveAspectRatio="none" id="img5"></image><clipPath id="clip6"><rect x="0" y="0" width="4172989" height="3601347"/></clipPath><image width="3600" height="2505" href="/sprites/settlement8-bg3.png" preserveAspectRatio="none" id="img7"></image><clipPath id="clip8"><rect x="6053948" y="5441416" width="3674226" height="3788447"/></clipPath><image width="3600" height="2505" href="/sprites/settlement8-bg4.png" preserveAspectRatio="none" id="img9"></image><clipPath id="clip10"><rect x="3201516" y="7066612" width="4192386" height="4059188"/></clipPath><image width="3600" height="2505" href="/sprites/settlement8-bg5.png" preserveAspectRatio="none" id="img11"></image><clipPath id="clip12"><rect x="5105221" y="4797241" width="9182117" height="3505200"/></clipPath><clipPath id="clip13"><rect x="-2770.55" y="0" width="13987550" height="7392786"/></clipPath><image width="3600" height="2505" href="/sprites/settlement8-bg6.png" preserveAspectRatio="none" id="img14"></image><clipPath id="clip15"><rect x="4476587" y="4682806" width="13982009" height="7391085"/></clipPath><clipPath id="clip16"><rect x="-2770.55" y="-4.65661e-10" width="5622175" height="3258589"/></clipPath><image width="552" height="296" href="/sprites/settlement8-bg7.png" preserveAspectRatio="none" id="img17"></image><clipPath id="clip18"><path d="M160915 0 5780319 0 5780319 3257379 160916 3257379Z" fill-rule="evenodd" clip-rule="evenodd"/></clipPath></defs><g clip-path="url(#clip0)" transform="translate(1059 1169)"><g transform="matrix(0.000360892 0 0 0.000360892 -1059 -1169)"><g clip-path="url(#clip2)" transform="matrix(1 0 0 1.00001 -0.15099 384443)"><use width="100%" height="100%" xlink:href="#img1" transform="scale(5556.44 5556.44)"></use></g></g><g transform="matrix(0.000360892 0 0 0.000360892 2420 -303)"><g clip-path="url(#clip4)" transform="matrix(1 0 0 1.00012 0.124023 0.0153364)"><use width="100%" height="100%" xlink:href="#img3" transform="scale(9525.65 9525.65)"></use></g></g><g transform="matrix(0.000360892 0 0 0.000360892 3623 584)"><g clip-path="url(#clip6)" transform="matrix(1 0 0 1.00023 -0.250022 -0.0125178)"><use width="100%" height="100%" xlink:href="#img5" transform="scale(9527.37 9527.37)"></use></g></g><g transform="matrix(0.000360892 0 0 0.000360892 1128 935)"><g clip-path="url(#clip8)" transform="matrix(1 0 0 1.00057 -6053947 -5444513)"><use width="100%" height="100%" xlink:href="#img7" transform="scale(5552.57 5552.57)"></use></g></g><g transform="matrix(0.000360892 0 0 0.000360892 95.9999 1519)"><g clip-path="url(#clip10)" transform="matrix(1 0 0 1.00005 -3201516 -7066950)"><use width="100%" height="100%" xlink:href="#img9" transform="scale(5558.19 5558.19)"></use></g></g><g transform="matrix(0.000360892 0 0 0.000360892 784 701)"><g clip-path="url(#clip12)" transform="matrix(1.00007 0 0 1 -5105596 -4797241)"><use width="100%" height="100%" xlink:href="#img11" transform="scale(5556.23 5556.23)"></use></g></g><g clip-path="url(#clip13)" transform="matrix(0.000360892 0 0 0.000360892 557 660)"><g clip-path="url(#clip15)" transform="matrix(1 0 0 1.00023 -4476586 -4683883)"><use width="100%" height="100%" xlink:href="#img14" transform="scale(5556.04 5556.04)"></use></g></g><g clip-path="url(#clip16)" transform="matrix(0.000360892 0 0 0.000360892 2592 1485)"><g clip-path="url(#clip18)" transform="matrix(1 0 0 1.00037 -160915 -0.230713)"><use width="100%" height="100%" xlink:href="#img17" transform="scale(11004.7 11004.7)"></use></g></g></g></svg>